<svg width="150" height="28" viewBox="0 0 150 28" fill="none" xmlns="http://www.w3.org/2000/svg">
<path d="M37 18.8209V9.17906H40.6141C41.1389 9.17906 41.6135 9.31451 42.0379 9.5854C42.4668 9.8517 42.8068 10.2098 43.0578 10.6598C43.3088 11.1051 43.4343 11.5941 43.4343 12.1267C43.4343 12.6685 43.3042 13.1621 43.0441 13.6074C42.7886 14.0528 42.4463 14.4086 42.0174 14.6749C41.5884 14.9412 41.1207 15.0744 40.6141 15.0744H39.0535V18.8209H37ZM39.0535 13.0083H40.3814C40.5639 13.0083 40.7305 12.9624 40.8811 12.8705C41.0317 12.7741 41.1526 12.6478 41.2439 12.4917C41.3351 12.3356 41.3808 12.1635 41.3808 11.9752C41.3808 11.787 41.3351 11.6148 41.2439 11.4587C41.1526 11.3026 41.0317 11.1786 40.8811 11.0868C40.7305 10.9904 40.5639 10.9421 40.3814 10.9421H39.0535V13.0083Z" fill="black"/>
<path d="M49.3937 19C48.627 19 47.9494 18.8118 47.3607 18.4353C46.7766 18.0588 46.318 17.5537 45.9849 16.9201C45.6563 16.2819 45.492 15.5748 45.492 14.7989V9.17906H47.5455V14.7989C47.5455 15.1892 47.6185 15.5473 47.7646 15.8733C47.9106 16.1947 48.1205 16.4518 48.3943 16.6446C48.6727 16.8375 49.0058 16.9339 49.3937 16.9339C49.7861 16.9339 50.1192 16.8398 50.393 16.6515C50.6668 16.4587 50.8745 16.2016 51.0159 15.8802C51.1574 15.5542 51.2281 15.1938 51.2281 14.7989V9.17906H53.2816V14.7989C53.2816 15.382 53.1881 15.9284 53.001 16.438C52.8139 16.9431 52.5469 17.3884 52.2001 17.7741C51.8533 18.1598 51.4426 18.4605 50.968 18.6763C50.4934 18.8921 49.9686 19 49.3937 19Z" fill="black"/>
<path d="M55.4146 18.8209V9.17906H59.0424C59.5672 9.17906 60.0418 9.28926 60.4661 9.50964C60.8905 9.72544 61.2259 10.0331 61.4724 10.4325C61.7233 10.832 61.8488 11.3003 61.8488 11.8375C61.8488 12.0395 61.8237 12.253 61.7735 12.478C61.7233 12.6983 61.6344 12.905 61.5066 13.0978C61.3788 13.2906 61.1963 13.4421 60.959 13.5523C61.2647 13.6258 61.5066 13.7635 61.6846 13.9656C61.8625 14.1676 61.9949 14.4017 62.0816 14.668C62.1728 14.9298 62.2321 15.1961 62.2595 15.4669C62.2869 15.7332 62.3006 15.9743 62.3006 16.1901C62.3006 16.6768 62.1705 17.1198 61.9104 17.5193C61.6503 17.9141 61.3012 18.2309 60.8632 18.4697C60.4251 18.7039 59.9414 18.8209 59.412 18.8209H55.4146ZM57.4681 17.0716H59.193C59.4303 17.0716 59.6448 17.0165 59.8364 16.9063C60.0326 16.7916 60.1878 16.6354 60.3019 16.438C60.4205 16.2406 60.4798 16.0156 60.4798 15.7631C60.4798 15.5519 60.4205 15.3522 60.3019 15.1639C60.1878 14.9711 60.0326 14.815 59.8364 14.6956C59.6448 14.5762 59.4303 14.5165 59.193 14.5165H57.4681V17.0716ZM57.4681 12.7948H58.796C59.0698 12.7948 59.3048 12.7029 59.501 12.5193C59.6972 12.3356 59.7953 12.1038 59.7953 11.8237C59.7953 11.539 59.6972 11.3209 59.501 11.1694C59.3048 11.0179 59.0698 10.9421 58.796 10.9421H57.4681V12.7948Z" fill="black"/>
<path d="M64.0002 18.8209V9.17906H66.0537V16.7548H69.8184V18.8209H64.0002Z" fill="black"/>
<path d="M72.2163 18.8209V9.17906H74.2698V18.8209H72.2163Z" fill="black"/>
<path d="M81.2353 19C80.5873 19 79.9781 18.8714 79.4077 18.6143C78.8373 18.3526 78.3353 17.9922 77.9018 17.5331C77.4728 17.0739 77.1351 16.5436 76.8887 15.9421C76.6469 15.3361 76.5259 14.6887 76.5259 14C76.5259 13.3067 76.6469 12.6593 76.8887 12.0579C77.1351 11.4518 77.4728 10.9215 77.9018 10.4669C78.3353 10.0078 78.8373 9.64968 79.4077 9.39256C79.9781 9.13085 80.5873 9 81.2353 9C82.011 9 82.7252 9.18136 83.3777 9.54408C84.0303 9.9022 84.5711 10.382 85 10.9835L83.1655 11.9752C82.9283 11.6997 82.6431 11.4793 82.3099 11.314C81.9768 11.1488 81.6186 11.0661 81.2353 11.0661C80.8702 11.0661 80.5257 11.1419 80.2017 11.2934C79.8822 11.4449 79.5993 11.6561 79.3529 11.927C79.111 12.1933 78.9217 12.5032 78.7848 12.8567C78.6479 13.2103 78.5794 13.5914 78.5794 14C78.5794 14.404 78.6479 14.7828 78.7848 15.1364C78.9217 15.4899 79.111 15.8021 79.3529 16.073C79.5993 16.3393 79.8822 16.5505 80.2017 16.7066C80.5257 16.8581 80.8702 16.9339 81.2353 16.9339C81.6186 16.9339 81.9768 16.8512 82.3099 16.686C82.6431 16.5161 82.9283 16.2911 83.1655 16.011L85 17.0165C84.5711 17.6134 84.0303 18.0932 83.3777 18.4559C82.7252 18.8186 82.011 19 81.2353 19Z" fill="black"/>
<path d="M98.7999 11.372L93.7217 16.628H98.7999V18.5H91V16.628L96.0781 11.372H91V9.5H98.7999V11.372Z" fill="black"/>
<path d="M108.798 18.5H106.606L104.359 14.684L102.889 16.412V18.5H100.989V5H102.889V13.505L106.286 9.5H108.77L105.656 13.163L108.798 18.5Z" fill="black"/>
<path d="M115.402 18.734C114.702 18.734 114.029 18.626 113.383 18.41C112.738 18.194 112.175 17.885 111.694 17.483C111.213 17.075 110.869 16.592 110.662 16.034L112.443 15.377C112.546 15.665 112.744 15.923 113.036 16.151C113.335 16.373 113.688 16.547 114.096 16.673C114.51 16.799 114.945 16.862 115.402 16.862C115.889 16.862 116.346 16.784 116.772 16.628C117.204 16.472 117.551 16.256 117.813 15.98C118.081 15.704 118.215 15.38 118.215 15.008C118.215 14.624 118.075 14.309 117.795 14.063C117.521 13.817 117.168 13.622 116.735 13.478C116.309 13.334 115.865 13.226 115.402 13.154C114.507 13.01 113.703 12.8 112.991 12.524C112.284 12.248 111.724 11.861 111.31 11.363C110.902 10.865 110.698 10.217 110.698 9.419C110.698 8.669 110.914 8.015 111.347 7.457C111.785 6.899 112.36 6.467 113.073 6.161C113.791 5.849 114.568 5.693 115.402 5.693C116.09 5.693 116.754 5.801 117.393 6.017C118.038 6.227 118.605 6.536 119.092 6.944C119.585 7.346 119.938 7.835 120.151 8.411L118.352 9.05C118.248 8.756 118.05 8.501 117.758 8.285C117.466 8.063 117.113 7.889 116.699 7.763C116.291 7.637 115.858 7.574 115.402 7.574C114.915 7.568 114.458 7.646 114.032 7.808C113.612 7.964 113.268 8.18 113 8.456C112.732 8.732 112.598 9.053 112.598 9.419C112.598 9.869 112.723 10.211 112.972 10.445C113.222 10.679 113.557 10.853 113.977 10.967C114.403 11.075 114.878 11.174 115.402 11.264C116.242 11.396 117.018 11.615 117.731 11.921C118.449 12.227 119.025 12.635 119.457 13.145C119.895 13.649 120.115 14.27 120.115 15.008C120.115 15.752 119.895 16.406 119.457 16.97C119.025 17.528 118.449 17.963 117.731 18.275C117.018 18.581 116.242 18.734 115.402 18.734Z" fill="black"/>
<path d="M128.169 9.5H130.197L125.192 23H123.173L124.826 18.5L121.547 9.5H123.621L125.776 15.935L128.169 9.5Z" fill="black"/>
<path d="M140.327 12.857V18.5H138.427V13.316C138.427 12.914 138.327 12.548 138.126 12.218C137.931 11.888 137.666 11.627 137.331 11.435C137.003 11.237 136.631 11.138 136.217 11.138C135.815 11.138 135.447 11.237 135.112 11.435C134.777 11.627 134.509 11.888 134.308 12.218C134.107 12.548 134.007 12.914 134.007 13.316V18.5H132.107V9.5H134.007V10.454C134.323 10.082 134.713 9.788 135.176 9.572C135.639 9.356 136.138 9.248 136.674 9.248C137.35 9.248 137.965 9.41 138.519 9.734C139.073 10.058 139.511 10.493 139.834 11.039C140.163 11.585 140.327 12.191 140.327 12.857Z" fill="black"/>
<path d="M148.301 15.944L150 16.853C149.586 17.423 149.059 17.879 148.42 18.221C147.787 18.563 147.099 18.734 146.356 18.734C145.516 18.734 144.748 18.521 144.054 18.095C143.366 17.669 142.815 17.099 142.401 16.385C141.993 15.665 141.789 14.87 141.789 14C141.789 13.34 141.908 12.725 142.145 12.155C142.383 11.579 142.709 11.075 143.123 10.643C143.543 10.205 144.03 9.863 144.584 9.617C145.138 9.371 145.729 9.248 146.356 9.248C147.099 9.248 147.787 9.419 148.42 9.761C149.059 10.103 149.586 10.562 150 11.138L148.301 12.047C148.045 11.747 147.747 11.519 147.406 11.363C147.065 11.201 146.715 11.12 146.356 11.12C145.857 11.12 145.403 11.255 144.995 11.525C144.593 11.789 144.273 12.14 144.036 12.578C143.805 13.01 143.689 13.484 143.689 14C143.689 14.51 143.808 14.984 144.045 15.422C144.283 15.854 144.602 16.202 145.004 16.466C145.412 16.73 145.863 16.862 146.356 16.862C146.733 16.862 147.093 16.778 147.434 16.61C147.775 16.442 148.064 16.22 148.301 15.944Z" fill="black"/>
<path fill-rule="evenodd" clip-rule="evenodd" d="M6.09766 7.27595L2.50171 4.58815C1.95661 5.52176 1.49298 6.50349 1.11628 7.52174L5.32993 8.92823C5.54954 8.36029 5.80603 7.80828 6.09766 7.27595V7.27595ZM9.55461 3.15891L6.30944 0C5.31224 0.863644 4.40905 1.83661 3.6158 2.90173L7.20071 5.58043C7.88482 4.67554 8.67554 3.8621 9.55461 3.15891V3.15891ZM4.72987 10.8832L0.518434 9.47672C0.256401 10.5287 0.085126 11.6025 0.00661802 12.6857H4.44308C4.50012 12.079 4.59592 11.4769 4.72987 10.8832V10.8832ZM5.14462 18.6576L0.937592 20.0641C1.29428 21.1168 1.74478 22.1331 2.28331 23.1001L5.89028 20.4054C5.60241 19.8376 5.35326 19.2498 5.14462 18.6462V18.6576ZM6.93597 22.1442L3.35989 24.8138C4.19025 25.9892 5.15296 27.0588 6.22782 28L9.46637 24.8457C8.50772 24.0637 7.65647 23.1511 6.93597 22.1328V22.1442ZM4.4122 15.0662H0C0.050419 16.088 0.18399 17.1036 0.399303 18.1023L4.63281 16.6889C4.52971 16.1489 4.45605 15.6034 4.4122 15.0549V15.0662Z" fill="#00DD66"/>
<path fill-rule="evenodd" clip-rule="evenodd" d="M17.693 5.19141C15.6483 5.19226 13.6713 5.94677 12.1183 7.31887C10.5654 8.69097 9.53884 10.5904 9.22375 12.6745H13.5676C13.8843 11.6437 14.5526 10.7663 15.4485 10.2049C16.3444 9.64357 17.4072 9.43629 18.4399 9.62151C19.4726 9.80674 20.4052 10.3719 21.0649 11.2123C21.7246 12.0526 22.0666 13.1112 22.0275 14.1918C21.9885 15.2724 21.571 16.3018 20.8525 17.0891C20.134 17.8765 19.1632 18.3684 18.12 18.4738C17.0767 18.5792 16.0319 18.2908 15.179 17.6622C14.3261 17.0336 13.723 16.1073 13.4815 15.055H9.19287C9.38517 16.7472 10.0476 18.3459 11.1005 19.6586C12.1533 20.9712 13.5516 21.9418 15.1269 22.4535C16.7022 22.9651 18.3873 22.9959 19.9792 22.5423C21.5711 22.0886 23.0019 21.1697 24.0992 19.8964C25.1965 18.6231 25.9135 17.0496 26.1638 15.3655C26.4141 13.6815 26.1871 11.9587 25.5101 10.4046C24.8331 8.85062 23.735 7.53169 22.348 6.60673C20.9611 5.68178 19.3445 5.19027 17.693 5.19141V5.19141Z" fill="#00DD66"/>
</svg>
